<?xml version="1.0" encoding="UTF-8"?> <svg xmlns="http://www.w3.org/2000/svg" xmlns:xlink="http://www.w3.org/1999/xlink" width="1149.181" height="755.479" viewBox="0 0 1149.181 755.479"> <defs> <linearGradient id="linear-gradient" x1="0.578" y1="-0.294" x2="0.578" y2="0.706" gradientUnits="objectBoundingBox"> <stop offset="0" stop-color="gray" stop-opacity="0.251"></stop> <stop offset="0.54" stop-color="gray" stop-opacity="0.122"></stop> <stop offset="1" stop-color="gray" stop-opacity="0.102"></stop> </linearGradient> <linearGradient id="linear-gradient-2" x1="0.601" y1="-0.478" x2="0.601" y2="0.522" xlink:href="#linear-gradient"></linearGradient> </defs> <g id="Group_910" data-name="Group 910" transform="translate(5920 -5131)"> <path id="Path_1445" data-name="Path 1445" d="M1065.62,619.94q-5.381,4.73-11,9.19c-.63.51-1.28,1-1.92,1.52a386.281,386.281,0,0,1-42,28.37l-2.73,1.59c-.66.4-1.31.77-2,1.14-15.26,8.81-31.09,16.92-47.11,24.6l-.17.09-1.21.57q-19.38,9.289-39.34,17.78l-.32.12q-9,3.791-18,7.38c-2.45,1-4.91,1.93-7.37,2.88-4.63,1.77-9.27,3.51-13.95,5.18l-.58.22-1,.35-1.25.46q-18.31,6.54-37.11,12.08l-.22.06q-13.11,3.82-26.39,7.07l-1.21.3c-13,3.14-26.21,5.84-39.5,8l-3.06.49q-14.58,2.29-29.36,3.74c-55.39,5.35-111.44,1-166.49-6.46C461.17,731.58,351.48,703.31,251.44,659q-28.8-12.75-56.48-27.3c-.15-.08-.28-.16-.43-.23q-16.57-8.71-32.69-18.15c-3.15-1.82-6.28-3.68-9.39-5.55q-5.74-3.461-11.43-7-7.5-4.68-15-9.59l-2.34-1.56-.9-.61c-1.27-.85-2.52-1.7-3.78-2.56-47-32-88.91-70.78-108.71-119.31-22.88-56-8.24-127,48.43-160.1,19.48-11.4,42.12-17.59,65-22.7l2.34-.52c3.87-.85,7.74-1.67,11.59-2.49,13.49-2.86,27.05-5.7,40.48-8.87h0c7-1.65,13.93-3.38,20.82-5.25l2.82-.78a337.113,337.113,0,0,0,48.61-17.12h.1q2.535-1.125,5-2.33c1.06-.5,2.12-1,3.18-1.55,17-8.46,35-20.19,48.85-34.17,1.11-1.12,2.19-2.26,3.24-3.4.81-.89,1.61-1.79,2.38-2.69,9.71-11.32,16.43-23.89,17.71-37.23h0a48,48,0,0,0-.6-13.43c-1.57-8.39-3.09-16.6-4.21-24.61-2.09-15.05-2.8-29.44.1-43.31h0c2.95-14.14,9.64-27.75,22.41-40.95q2.891-3,6.23-6A131.277,131.277,0,0,1,389.4,17.76q2.34-1,4.71-2C429.19,1.56,471.34-1.4,510.72.56a636.091,636.091,0,0,1,109.26,15.2c2.85.64,5.7,1.31,8.53,2a757.4,757.4,0,0,1,90,27.83c76.38,28.73,148.47,68.62,215.82,112.64.66.43,1.32.86,2,1.3q4.219,2.75,8.39,5.52,8.07,5.351,16,10.77l3.57,2.43q2.64,1.8,5.25,3.61l5.36,3.71h0a5.93,5.93,0,0,1,.72.51l4.56,3.16c2.64,1.84,5.26,3.69,7.89,5.55h0l5.64,4c1.17.84,2.35,1.67,3.52,2.52l6,4.38,1.34,1c.28.2.56.4.83.62l.17.11c16.26,11.93,32.13,24.3,47,37.41l1.92,1.7.2.18c1.62,1.44,3.24,2.9,4.83,4.37,19.42,17.68,36.82,36.68,51.04,57.68C1175.88,405.76,1156.49,540.07,1065.62,619.94Z" transform="translate(-5919.95 5130.983)" fill="#44e2aa" opacity="0.1" style="isolation: isolate"></path> <path id="Path_1446" data-name="Path 1446" d="M1108.43,340.7c.64-1.74-4.14-11.4-4.14-11.88s-5-5.85-5-8.87-6.53-9.5-6.53-9.5-8.78-3.65-9.74-11.56-10.16-8.08-10.52-8.09c0,0,0-.72.06-1.82,0-2.46-.07-6.85-1.18-9.26a9.4,9.4,0,0,0-5.42-4.61s-1-6.17-2.88-8.07a9.09,9.09,0,0,1-2.22-8.56c.53-1.68.07-4.79-1.25-7.39a7.572,7.572,0,0,0-4.66-4.33h-.17c-4.58-1.11-9.71-2.81-9.71-2.81s-.52.1-1.29.21l-.64-.21a28.644,28.644,0,0,1-3.34.42,4.147,4.147,0,0,1-2.71-.89c-1.6-1.75-14.52-5.07-16.91-5.07s-9.26-3.17-9.26-3.17l-6.85-5.23c-1.92-1.46-5.48-7.4-6-8.28l-.08-.11h0a27.157,27.157,0,0,1-1.26-3.49c-.07-.22-.12-.44-.19-.68h0a38.175,38.175,0,0,0,3.81-4.68v-.05c.31-.43.6-.9.89-1.35q.63-1,1.2-2.07c.16-.31.31-.63.47-.93a4,4,0,0,0,1-.17l.43-.16a5.085,5.085,0,0,0,1.1-.69l.32-.29a7.821,7.821,0,0,0,2-3.07c.11-.34.21-.69.29-1a1.46,1.46,0,0,1,.09-.36c.03-.11.11-.48.15-.73l.06-.4a4.05,4.05,0,0,1,.12-.71,1.361,1.361,0,0,0,0-.41c0-.29.08-.6.11-.9.14-1.13.26-2.24.5-3.34a.085.085,0,0,0,0-.05,25.578,25.578,0,0,1,2.36-6.08c1-1.93,2.1-3.83,3-5.82h0c.26-.57.51-1.15.73-1.73s.44-1.28.64-1.93a2.652,2.652,0,0,1,.14-.59,14.276,14.276,0,0,0,.32-1.43,5.158,5.158,0,0,0,.12-.63c.12-.66.2-1.32.26-2a24.551,24.551,0,0,0-1.64-11.13c-1.19-3-3-5.65-4.19-8.62-1.83-4.51-2.31-9.61-4.55-13.91-3.75-7.2-12.6-10.8-19.87-8.09-3.46,1.28-6.47,3.79-10,4.92-4.7,1.51-9.75.37-14.63-.31s-10.28-.73-14.2,2.45c-4.51,3.67-5.75,10.57-10,14.59a23.037,23.037,0,0,1-3.33,2.5c-.86.59-1.73,1.17-2.54,1.84a9.466,9.466,0,0,0-2.95,4,3.119,3.119,0,0,0-.11.34,3.054,3.054,0,0,0-.11.41,4.122,4.122,0,0,1-.07.47,1.794,1.794,0,0,0,0,.33,5.76,5.76,0,0,0,0,.72h0v.12a4.589,4.589,0,0,0,.13.8v.22a3.985,3.985,0,0,0,.2.66.468.468,0,0,1,0,.13,7.216,7.216,0,0,0,.29.72,1.162,1.162,0,0,0,.14.36,1.435,1.435,0,0,1,.14.3,18.944,18.944,0,0,1,1.48,3.67,4.167,4.167,0,0,1-.15,2.44,3.915,3.915,0,0,1-.64,1.07,13.291,13.291,0,0,1-1.12,1.24,33.134,33.134,0,0,0-7.21,11.53c-.18.49-.35,1-.51,1.49h0l.21.06.21.05a6.993,6.993,0,0,0,1.19.25,7.172,7.172,0,0,0,.8.09,12.4,12.4,0,0,0,3.26-.26,4.832,4.832,0,0,0,.53-.12h0a.607.607,0,0,0,.16-.05h.1a17.352,17.352,0,0,0,2.62-.91c.2-.09.41-.17.61-.27v3.72a37.627,37.627,0,0,0,19.16,30.59c.57.33,1.13.64,1.71.93.05.34.1.69.14,1s.08.57.11.86l-.44-.41a2.918,2.918,0,0,0-1.19-.24,3.82,3.82,0,0,0-1.9.49,6.993,6.993,0,0,0-2.49,2.43c-2.7,4.13-7.82,6-7.82,6s-29,4.59-30.14,8.39l-13.56.8s-4.79.63-5.26,10.61v.23c-.07,1.19-.16,2.25-.27,3.2v.14c-.84,6.65-2.74,7.36-2.74,7.36s-5.59,9.82-5.11,14.89a.481.481,0,0,1,0,.12h0a6.538,6.538,0,0,1-.13,2.05h0a9,9,0,0,1-4.18,5.39l-.63,9s-5.26-.79-6.7,5.39-4,9-4,9-8.77,7.29-9.25,13.46l-5.43,3.33s-12.59-2.85-15.47-7.92c0,0-.34-.34-.88-.83l-.08-.12a.308.308,0,0,0,0,.06c-1.88-1.78-5.89-5.5-5.27-4.65a3.921,3.921,0,0,1,.26,2.56l-.94-1-2.51-2.8s-3.59-3.36-8.64-7.37h0q-1.731-1.38-3.65-2.82c-6.46-4.79-14.23-9.65-20-10.38-.12-.24-.6-2.05-1.73-2.05a1.9,1.9,0,0,0-1.24.61,16.641,16.641,0,0,0-.991,23.512q.425.461.881.888l1.31,1.22,4.06,3.8,13.7,12.8c.17.12.33.25.5.36l.81,1,.63.81,1.09,1.39,1.57,2c-.08.21-.17.41-.24.61-.59,1.44-1.1,2.84-1.52,4.12v.14c-.1.32-.2.62-.29.92a1.242,1.242,0,0,1-.1.31c-.1.3-.18.6-.27.87a4.233,4.233,0,0,0-.14.52,2.88,2.88,0,0,1-.1.31c-.45,1.59-.73,2.81-.88,3.49l-1.06-.33,1,.45a1.611,1.611,0,0,1,0,.17l-.06.32c.31.15.64.29,1,.43l.23.1,3.92,1.73h0c.79.35,1.65.72,2.57,1.14s1.63.73,2.52,1.11h0c10.24,4.56,24.59,11.11,25.61,12.42,1.59,2.07,12.12,8.08,21.7,3s11.63-12.84,11.63-12.84,9.26-12.82,9.58-14.72c.24-1.46,4.52-3.11,6.5-3.8l.19-.06.8-.26v2.42c0,4.46-.06,14.16-1.46,21.21a.122.122,0,0,0,0,.06,23.075,23.075,0,0,1-1.59,5.3c-3.67,7.76-10.52,42.14-10.52,42.14h.16a4.639,4.639,0,0,1,1.2-.06c-.14.64-.23,1.14-.3,1.48s-.1.51-.1.51h.12a4.6,4.6,0,0,1,1.16-.07,2.446,2.446,0,0,1,.39.05,6.106,6.106,0,0,1-.1.72v.25c0,.04-.06.31-.08.48-.83,5.72-3.23,20.61-3.23,20.61s-1,8.23-2.56,11.08c-.67,1.21-1.08,4.56-1.34,8,0,.5-.07,1-.11,1.52-.26,4.24-.3,8.21-.3,8.21l-.07.26-2.35,10.66a3,3,0,0,0,.13.29h0c.17.32.44.87.83,1.55h0l.12.26a29.758,29.758,0,0,0,5.54,7.8,14.4,14.4,0,0,0,1.68,1.43h0a1.806,1.806,0,0,1-.07.35c-.02.1-.06.38-.09.56a16.18,16.18,0,0,1-1.13,4,13.387,13.387,0,0,0-1.15,4.36h0a20.041,20.041,0,0,0-.1,3.24l-.13.59h0c-.35,1.63-1.35,6.41-1.89,10.3-.13.89-.25,1.75-.32,2.55a12.393,12.393,0,0,0,0,2.23,18.356,18.356,0,0,1-.2,3.74,8.435,8.435,0,0,1-.13,1.1c-.54,3.52-1.43,7.21-1.43,7.21l-2.87,27.55v1.63a3.17,3.17,0,0,1-.06.72c0,.65-.1,1.42-.17,2.32a8.74,8.74,0,0,1-.06,1,5.216,5.216,0,0,1-.06.95v.52a4.7,4.7,0,0,1-.05.79,3.855,3.855,0,0,0,0,.76v.71c-.09,1.47-.19,3.06-.26,4.67v1.54a11.563,11.563,0,0,1-.07,1.54V581.2a29.152,29.152,0,0,0,.24,3.18c.11.78.19,1.6.23,2.44v1.16a5.605,5.605,0,0,1,0,.58v4.48c-.25,3.44-.72,6.23-.79,6.67h0v.94c0,.25.06.57.09.92v.5h0a1.976,1.976,0,0,0,.06.58c.06.2,0,.19,0,.3,0,.36.06.73.1,1.12s.09.81.12,1.23l.06.79c0,.38.08.78.11,1.17v.4c0,.27.06.53.08.81l.09,1.23c0,.27.06.55.08.82a2.783,2.783,0,0,1,0,.42l.13,1.62a4.3,4.3,0,0,0,.05.8c0,.42.06.85.1,1.25s0,.92.07,1.34a8.585,8.585,0,0,1,.06,1.22,16.842,16.842,0,0,1,0,3.39c-.26,1.14-1.1,4.33-1.58,7.79,0,.31-.09.62-.12.94a3.381,3.381,0,0,0,0,.56l-.06.75c0,.6-.07,1.21-.07,1.8a13.874,13.874,0,0,0,.45,4,18.931,18.931,0,0,1,.5,2.64,1.355,1.355,0,0,0,.05.44c0,.32.07.65.1,1s.05.68.07,1c0,.7.06,1.42.09,2.15v1.45c.07,4.22-.13,8.35-.19,9.41v.26s1,17.75,2.07,23.44c.14.75.24,1.51.31,2.29a5.081,5.081,0,0,0,.05.87,44.58,44.58,0,0,1-.68,9.84s-1.12,12.19-1.59,12.19c-.23,0-1.27,1.88-1.43,4.72v.08c-.14,3.17.83,7.53,5.25,11.84l.48.47.58-.22c4.68-1.67,9.32-3.41,13.95-5.18,2.46-.95,4.92-1.9,7.37-2.88q9.08-3.59,18-7.38h0a1.142,1.142,0,0,1-.57-.72c-.92-2.45.45-10,.73-11.16s2.87-25.83,2.87-25.83-1-7.75.32-11.07-1.6-16.17-1.6-16.17-1-1.58.8-3.48,1.12-18.85,1.12-18.85-.16-8.56-.16-10.78,1.92-10.3,3.66-13,.65-11.1.65-11.1h0l.1-.64a6.36,6.36,0,0,1,.14-.89l.15-.85a117.359,117.359,0,0,1,3.1-13.75c2.08-6.65,4.47-18.37,4.47-18.37l13.95-37.41h0l.46-1.16.17-.46s6.85,12.68,6.85,24.4c0,0,1.76,14.1,1.29,17.9s1.43,21.7,1.43,21.7,2.06,25.67,2.06,26.77,2.56,20.85,4.16,23.85-1.6,12.2-2.55,13.15.32,24.24.32,24.24-2.41,18.37-2.88,22.17c-.09.69-.23,1.73-.38,3,16-7.68,31.85-15.79,47.11-24.6.66-.37,1.31-.74,2-1.14l.11-22.73s1.12-10.61-.16-14.9-2.55-12.5-.79-14.72.16-12.51.16-12.51,0-21.71,2.39-27.09,1.6-39.44,1.6-39.44l.63-22.34s5.09-4.82,4-29.79v-.85c5.56-.35,11.83-.55,12.78.23,1.52,1.22,10.08,6.76,16.71,5.38h0a8.134,8.134,0,0,0,3.06-1.27c1.44-.64,8-6.18,8-6.18l-2.54-42.73h0l-.27-4.75c.48.73.9,1.38,1.26,2,1,1.52,1.55,2.45,1.55,2.45,0-6.65,18.83-28.19,18.83-28.19s17.55-22.65,21.37-25.35,11.33-16.95,11.33-16.95a68.98,68.98,0,0,1,3.83-7.92C1113.56,350.05,1107.79,342.44,1108.43,340.7Zm-56.15,30.41a9.937,9.937,0,0,1-2.12,4.27c-.08-1-.16-1.93-.24-2.93v-.26c-1.12-13.94-2.32-30.8-1.77-32.45.45-1.32.61-4.82.66-8.18h0c.07-3.83,0-7.48,0-7.48h0l.18-.25c3.22,10,13.21,21.66,13.21,21.66s1.76,5.07,3.83,5.23,1.27,6.65,1.27,6.65a7.538,7.538,0,0,0-2.72,1,23.9,23.9,0,0,0-2.82,1.91h0C1057.18,363.76,1052.39,369.49,1052.28,371.11Z" transform="translate(-5919.95 5130.983)" fill="url(#linear-gradient)"></path> <path id="Path_1447" data-name="Path 1447" d="M811.56,353.76s5.82-30.5,24.52-30.66l13.68,28.14-9.2,6.25S820.8,358.12,811.56,353.76Z" transform="translate(-5919.95 5130.983)" fill="#65617d"></path> <path id="Path_1448" data-name="Path 1448" d="M849.72,351.2l-9.16,6.29s-13.94.44-23.9-2a27.313,27.313,0,0,1-5.1-1.73,1.85,1.85,0,0,1,.1-.49.8.8,0,0,1,0-.12,69.4,69.4,0,0,1,3.54-11.2c.57-1.37,1.23-2.78,1.93-4.19,2.74-5.27,6.59-10.44,11.86-13a16.215,16.215,0,0,1,6.23-1.63h.83l.31.62,4.62,9.51Z" transform="translate(-5919.95 5130.983)" opacity="0.1" style="isolation: isolate"></path> <path id="Path_1449" data-name="Path 1449" d="M1005.04,477.91s19.65-1.88,21.38-.47,12.89,8.65,19.5,4.09,2.2-20.44,2.2-21.07-.63-23.11-.63-23.11l-11.79-15.88-14.78-27.82-30.18-3,.78,44.18-.15,22.64Z" transform="translate(-5919.95 5130.983)" fill="#65617d"></path> <path id="Path_1450" data-name="Path 1450" d="M1005.04,477.91s19.65-1.88,21.38-.47,12.89,8.65,19.5,4.09,2.2-20.44,2.2-21.07-.63-23.11-.63-23.11l-11.79-15.88-14.78-27.82-30.18-3,.78,44.18-.15,22.64Z" transform="translate(-5919.95 5130.983)" opacity="0.1" style="isolation: isolate"></path> <path id="Path_1451" data-name="Path 1451" d="M832.11,322.28s-1.55,19.18-13.55,19.48a94.057,94.057,0,0,1-7.94-5.45c-10.5-7.85-27.15-22.95-22.55-37,6.6-20.12,38.67,17,38.67,17l2.47,2.76Z" transform="translate(-5919.95 5130.983)" fill="#a5636d"></path> <path id="Path_1452" data-name="Path 1452" d="M832.11,322.28s-1.55,19.18-13.55,19.48a94.057,94.057,0,0,1-7.94-5.45l-1-1.31a15.615,15.615,0,0,0,6.55,1.77c3,.06,6.38-1,8.55-5.39a69.525,69.525,0,0,0,3.31-7.61,22.938,22.938,0,0,0,1.2-4.72Z" transform="translate(-5919.95 5130.983)" opacity="0.1" style="isolation: isolate"></path> <path id="Path_1453" data-name="Path 1453" d="M826.92,357.02l-2.69-3.46-9-11.65-4.67-5.95a15.612,15.612,0,0,0,6.54,1.76c3,.07,6.38-1,8.55-5.39a67.519,67.519,0,0,0,3.31-7.61c1.49-4.24,1.46-6.42.93-7.16s3.34,2.85,5.2,4.62l.07.06.86.82.33.64,4.55,9.11v.38C841.32,336.08,842.85,354.42,826.92,357.02Z" transform="translate(-5919.95 5130.983)" fill="#e7effd"></path> <path id="Path_1454" data-name="Path 1454" d="M918.18,704.76a4.552,4.552,0,0,0-.94-.62h-.08c-1.88-.79-.16-10.54.16-11.8s2.83-25.58,2.83-25.58-.94-7.69.32-11-1.58-16-1.58-16-.94-1.57.79-3.46,1.1-18.71,1.1-18.71-.15-8.48-.15-10.69,1.88-10.21,3.61-12.89.63-11,.63-11h0l.09-.64c.05-.23.09-.53.14-.88l.15-.84a4.1,4.1,0,0,1,.11-.64c.09-.5.19-1,.3-1.64.06-.36.13-.74.21-1.12.23-1.2.5-2.52.79-3.87.09-.42.19-.85.29-1.27s.24-1,.37-1.52c.08-.31.15-.61.24-.92.23-.92.48-1.81.75-2.66,2-6.61,4.41-18.24,4.41-18.24l14.61-38.38.17-.46.46.89h0c1.52,3.07,6.29,13.52,6.29,23.31,0,0,1.74,14,1.26,17.76s1.42,21.54,1.42,21.54,2,25.46,2,26.56,2.52,20.76,4.09,23.74-1.57,12.11-2.52,13,.32,24.06.32,24.06-2.36,18.23-2.84,22c-.1.9-.3,2.41-.51,4.26l1.21-.57.17-.09c16-7.68,31.85-15.79,47.11-24.6l.13-24.11s1.1-10.54-.15-14.78-2.52-12.42-.8-14.63.17-12.41.17-12.41,0-21.54,2.35-26.88,1.58-39.15,1.58-39.15l.62-22.16s5.13-4.89,3.92-30.41c-.13-2.72-.33-5.67-.61-8.89-.87-9.63-1.75-18.35-2.55-25.9-.07-.65-.14-1.29-.21-1.91-.08-.84-.18-1.67-.26-2.48-.19-1.71-.37-3.35-.55-4.91-.06-.46-.11-.91-.16-1.36q-.39-3.36-.73-6.2c-.08-.74-.18-1.47-.26-2.16-.13-1-.25-2-.36-2.93a4.976,4.976,0,0,0-.09-.66,8.41,8.41,0,0,0-.14-1.15c-.52-4.08-.83-6.31-.83-6.31h-.14l-15.81.14-34.51.33h-1.01l-18,.17h-1.1l-8.64.09h-1.47l-18,.17h-1.09l-7.39,30.46-15.09,34.59s-.23,3.79-.76,7.49v.22a.722.722,0,0,1-.06.36,2.623,2.623,0,0,0-.09.56,19.461,19.461,0,0,1-1.27,4.89,12.181,12.181,0,0,0-1,3.45h0a20.2,20.2,0,0,0-.23,3.83h0v.21s-1.2,5.45-1.9,10.09c-.13.89-.25,1.75-.32,2.55a16.03,16.03,0,0,0-.14,2.93,16.442,16.442,0,0,1-.11,3,8.448,8.448,0,0,1-.13,1.1c-.49,3.68-1.48,7.8-1.48,7.8l-2.84,27.36a.671.671,0,0,1,0,.09v1.14a3.171,3.171,0,0,1-.06.72c0,.65-.1,1.42-.17,2.32a8.727,8.727,0,0,1-.06,1,5.215,5.215,0,0,1-.06.95v.52a4.7,4.7,0,0,1-.05.79,3.86,3.86,0,0,0,0,.76v.71c-.08,1.47-.18,3.06-.25,4.67v1.54a11.562,11.562,0,0,1-.07,1.54V581.2a27.255,27.255,0,0,0,.24,3.34c.1.74.18,1.5.23,2.28v6.22c-.25,3.44-.72,6.23-.79,6.67h0v.94c0,.25.06.57.09.92v.5h0a1.976,1.976,0,0,0,.06.58c.06.2,0,.19,0,.3,0,.36.06.73.1,1.12s.08.81.12,1.23l.06.79c0,.38.08.78.11,1.17v.4c0,.27.06.53.08.81l.09,1.23c0,.27.06.55.08.82v.42l.13,1.62a4.3,4.3,0,0,0,.05.8c0,.42.06.85.1,1.25s0,.92.07,1.34a8.585,8.585,0,0,1,.06,1.22,17.789,17.789,0,0,1,0,3.28,76.612,76.612,0,0,0-1.56,7.9c0,.31-.09.62-.12.94a3.388,3.388,0,0,0,0,.56l-.06.75c0,.6-.07,1.21-.07,1.8a13.78,13.78,0,0,0,.45,3.77,21.175,21.175,0,0,1,.55,3.32c.08.64.13,1.32.17,2s.06,1.42.09,2.15v1.45c.06,4.75-.2,9.29-.2,9.29a1.192,1.192,0,0,0,0,.12v.08c.1,2,1,17.77,2,23.07a23.983,23.983,0,0,1,.35,2.84,5.081,5.081,0,0,0,.05.87,45.811,45.811,0,0,1-.71,9.19s-1.47,12.21-1.94,12.21c-.24,0-1.44,2.22-1.41,5.47v.08c0,3.06,1.18,7,5.19,11l1.12,1.12c4.68-1.67,9.32-3.41,13.95-5.18,2.46-.95,4.92-1.9,7.37-2.88q9.079-3.59,18-7.38Z" transform="translate(-5919.95 5130.983)" fill="#3f3d56"></path> <path id="Path_1455" data-name="Path 1455" d="M1000.64,232.35,977.37,257.2s-29.86-12-26.72-16c1.22-1.58,1-6.57.32-12.08-1.1-8.71-3.46-18.74-3.46-18.74s52.19-8.49,47.78.32c-1.6,3.21-1.33,7-.33,10.44A39.579,39.579,0,0,0,1000.64,232.35Z" transform="translate(-5919.95 5130.983)" fill="#a5636d"></path> <path id="Path_1456" data-name="Path 1456" d="M995.29,210.66c-1.6,3.21-2.37,3.52-1.37,7-6.82,7.32-15.5,15.33-26.29,15.33a37.24,37.24,0,0,1-16.66-3.9c-1.1-8.71-3.46-18.74-3.46-18.74S999.7,201.85,995.29,210.66Z" transform="translate(-5919.95 5130.983)" opacity="0.1" style="isolation: isolate"></path> <path id="Path_1457" data-name="Path 1457" d="M1005.05,194.62a37.42,37.42,0,1,1-74.84.066v-.606a37.42,37.42,0,0,1,74.83.54Z" transform="translate(-5919.95 5130.983)" fill="#a5636d"></path> <path id="Path_1458" data-name="Path 1458" d="M1010.46,441.46c-5,0-21.46.18-39.9.47h-.23l-6.09.1h-.19c-21.87.35-43.42-3.92-52.07-3.11-18.4,1.73,6.6-17,6.6-17a154.02,154.02,0,0,0,41.9,4.24l5.29-.28c16.71-.94,33.51-2.51,42.29-5.15C1008.67,425.61,1009.56,432.68,1010.46,441.46Z" transform="translate(-5919.95 5130.983)" opacity="0.1" style="isolation: isolate"></path> <path id="Path_1459" data-name="Path 1459" d="M1010.46,440.52c-5,0-21.46.17-39.9.47h-.23l-6.09.1h-.19c-21.87.35-43.42-3.92-52.07-3.11-18.4,1.72,6.6-17,6.6-17a153.776,153.776,0,0,0,41.9,4.23l5.29-.27c16.71-.94,33.51-2.52,42.29-5.15C1008.67,424.67,1009.56,431.76,1010.46,440.52Z" transform="translate(-5919.95 5130.983)" fill="#5f5d7e"></path> <path id="Path_1460" data-name="Path 1460" d="M957.56,242.76l-28.93,13.52L906.32,428.86s13.2-6,20.75-2.2,30.81.32,30.81.32,17-1,19.49.94,32.08-7.86,32.08-7.86,5.34-11.95,1.25-13.83,1.26-20.47,1.26-20.47l-2.51-124.51-5-16-13.52-8.17-13.83,11-6.6.95Z" transform="translate(-5919.95 5130.983)" opacity="0.1" style="isolation: isolate"></path> <path id="Path_1461" data-name="Path 1461" d="M957.56,240.84l-28.92,13.52L906.32,426.98s13.2-6,20.75-2.2,30.81.31,30.81.31,17-.94,19.49.94,32.08-7.86,32.08-7.86,5.34-11.94,1.25-13.83,1.26-20.44,1.26-20.44l-2.51-124.51-5-16-13.52-8.18-13.83,11-6.6.94Z" transform="translate(-5919.95 5130.983)" fill="#e7effd"></path> <path id="Path_1462" data-name="Path 1462" d="M957.09,248.86s8.34,9.9,8.18,11.95-.47,6.91-.47,6.91l-6.24,12.74s-3.46,15.88-3.46,19.18-5.5,31.91-5.5,31.91l-6.6,44-8.34,57.7,8.49,14.62,10.06-8.49,13.35-102.8,2.83-20.28s3-36.47,3-40.24-1.73-13.68-1.73-13.68,2.05-9.43,10.54-11.63-.63-.48-.63-.48l-4.87-3.93-4.25,1.73S959.61,244.46,957.09,248.86Z" transform="translate(-5919.95 5130.983)" opacity="0.1" style="isolation: isolate"></path> <path id="Path_1463" data-name="Path 1463" d="M956.15,247.92s8.33,9.9,8.18,11.94-.48,6.92-.48,6.92l-6.29,12.74s-3.46,15.87-3.46,19.17-5.5,31.92-5.5,31.92l-6.61,44-8.33,57.69,8.49,14.62,10.06-8.49,13.35-102.79,2.83-20.28s3-36.47,3-40.25-1.73-13.67-1.73-13.67,2-9.44,10.53-11.64-.62-.47-.62-.47l-4.88-3.93-4.24,1.73S958.67,243.51,956.15,247.92Z" transform="translate(-5919.95 5130.983)" fill="#ffb158"></path> <path id="Path_1464" data-name="Path 1464" d="M950.65,231.41s-1.26.94-1.57,7.23-4.72,20.44-4.72,20.44,16.35-11.32,24.53-10.06Z" transform="translate(-5919.95 5130.983)" opacity="0.1" style="isolation: isolate"></path> <path id="Path_1465" data-name="Path 1465" d="M950.65,229.52s-1.26.95-1.57,7.23-4.72,20.44-4.72,20.44,16.35-11.32,24.53-10.06Z" transform="translate(-5919.95 5130.983)" fill="#e7effd"></path> <path id="Path_1466" data-name="Path 1466" d="M995.3,226.38l-25.74,22.64s21.7,12.89,24.53,16,5.66-30.81,5.66-30.81Z" transform="translate(-5919.95 5130.983)" opacity="0.1" style="isolation: isolate"></path> <path id="Path_1467" data-name="Path 1467" d="M996.24,224.49l-25.78,22.64s21.69,12.89,24.52,16,5.66-30.82,5.66-30.82Z" transform="translate(-5919.95 5130.983)" fill="#e7effd"></path> <path id="Path_1468" data-name="Path 1468" d="M951.56,231.41s-2.83-1.42-5.5,2.67-7.7,6-7.7,6-28.62,4.56-29.72,8.33l-13.36.78s-4.72.57-5.16,10.57-3,10.84-3,10.84-5.51,9.75-5,14.78-4.25,7.55-4.25,7.55l19.69,51.04s.63,21.07-3,28.77-10.38,41.82-10.38,41.82,2.83-.63,2.67,1.26-3.46,22.48-3.46,22.48-.94,8.17-2.51,11-1.73,17.61-1.73,17.61l-2.59,10.69s6,13.36,15.1,11.47,25.62-37.57,25.62-37.57l10.53-38.51,8.18-38.05,2.36-25.78,3.77-57.07,5.5-37.73S953.79,234.08,951.56,231.41Z" transform="translate(-5919.95 5130.983)" opacity="0.1" style="isolation: isolate"></path> <path id="Path_1469" data-name="Path 1469" d="M950.65,229.52s-2.83-1.41-5.5,2.68-7.71,6-7.71,6-28.61,4.56-29.71,8.33l-13.36.79s-4.72.63-5.19,10.53-3,10.85-3,10.85-5.5,9.75-5,14.78-4.24,7.54-4.24,7.54l19.62,51.06s.63,21.07-3,28.77-10.37,41.82-10.37,41.82,2.83-.63,2.67,1.26-3.46,22.48-3.46,22.48-.94,8.17-2.51,11-1.73,17.61-1.73,17.61l-2.5,10.74s6,13.36,15.09,11.48,25.63-37.58,25.63-37.58l10.53-38.51,8.18-38,2.35-25.78,3.78-57.06,5.5-37.73S952.85,232.2,950.65,229.52Z" transform="translate(-5919.95 5130.983)" fill="#4c617b"></path> <path id="Path_1470" data-name="Path 1470" d="M849.72,351.2l-9.16,6.29s-13.94.44-23.9-2l-5.08-2.25-1-.45,1.05.33c5.26,1.56,9.37,1.53,12.58.45,12.91-4.34,11.48-25.65,11-30.47a4.329,4.329,0,0,0-.1-.91.3.3,0,0,1,0-.06l.08.12a5.749,5.749,0,0,0,.59.83,6.679,6.679,0,0,0,.58.61h0l4.55,9.11v.38Z" transform="translate(-5919.95 5130.983)" opacity="0.1" style="isolation: isolate"></path> <path id="Path_1471" data-name="Path 1471" d="M881.32,289.76l-4.4,1.26-.63,9s-5.19-.78-6.6,5.35-3.93,9-3.93,9-8.65,7.23-9.12,13.36l-5.35,3.3s-12.42-2.83-15.25-7.86c0,0,5.66,40.56-24.52,30.66,0,0,33.8,14.78,35.37,16.82s11.95,8,21.38,3,11.48-12.89,11.48-12.89,9.12-12.73,9.43-14.62,7.39-4.09,7.39-4.09l13.52-32.69Z" transform="translate(-5919.95 5130.983)" fill="#4c617b"></path> <path id="Path_1472" data-name="Path 1472" d="M991.68,245.24l4.56-20.75s2,6.76,4.09,8.33,6.76,5.19,6.76,5.19,6.76,3.15,9.11,3.15,15.1,3.3,16.67,5,7.86.47,7.86.47,5.19,1.73,9.75,2.83,6.76,8.65,5.81,11.63a9.09,9.09,0,0,0,2.2,8.49c1.89,1.89,2.83,8,2.83,8a9.219,9.219,0,0,1,5.35,4.56c1.57,3.46,1.1,11,1.1,11l-23.42,33s.31,12.73-.63,15.56,3.3,50.94,3.3,50.94l4.87,82.69s-6.44,5.5-7.86,6.13-2.83-29.24-2.83-30.34-36.31-54.4-36.31-54.4-4.88-7.86-4.88-9.59-4.56-17.6-4.56-17.6l-6.89-30.59Z" transform="translate(-5919.95 5130.983)" opacity="0.1" style="isolation: isolate"></path> <path id="Path_1473" data-name="Path 1473" d="M1069.72,291.39c0,1.08-.06,1.8-.06,1.8l-23.41,33h0s.32,12.74-.62,15.57c-.55,1.64.65,18.56,1.76,32.45.79,10,1.54,18.48,1.54,18.48l2.06,35.08,2.8,47.62s-6.44,5.5-7.85,6.13-2.83-29.24-2.83-30.35-36.34-54.41-36.34-54.41-4.87-7.87-4.87-9.6-4.56-17.61-4.56-17.61l-6.91-30.65,3.14-93.7,2.67-20.75s3.93,6.77,6,8.33,6.75,5.19,6.75,5.19,6.76,3.15,9.12,3.15,15.09,3.3,16.67,5,7.86.47,7.86.47,5.18,1.73,9.74,2.83,6.76,8.65,5.82,11.63a9.058,9.058,0,0,0,2.2,8.49c1.88,1.88,2.83,8,2.83,8a9.251,9.251,0,0,1,5.35,4.56C1069.65,284.58,1069.75,288.94,1069.72,291.39Z" transform="translate(-5919.95 5130.983)" fill="#4c617b"></path> <path id="Path_1474" data-name="Path 1474" d="M899.83,712.29c-2.45,1-4.91,1.93-7.37,2.88-7.71-2.25-14.91-4.9-14.91-4.9A204.754,204.754,0,0,1,899.83,712.29Z" transform="translate(-5919.95 5130.983)" opacity="0.1" style="isolation: isolate"></path> <path id="Path_1475" data-name="Path 1475" d="M974.23,628.36s18.71,4.4,19.81,7.39Z" transform="translate(-5919.95 5130.983)" opacity="0.1" style="isolation: isolate"></path> <path id="Path_1476" data-name="Path 1476" d="M902.07,641.88s-9.75,2.83-.31,8.49S902.07,641.88,902.07,641.88Z" transform="translate(-5919.95 5130.983)" opacity="0.1" style="isolation: isolate"></path> <path id="Path_1477" data-name="Path 1477" d="M945.3,490.76c1.1,0,18.24-5.66,24.21-3.14s13.37,2.51,13.37,2.51Z" transform="translate(-5919.95 5130.983)" opacity="0.1" style="isolation: isolate"></path> <path id="Path_1478" data-name="Path 1478" d="M947.56,508.76l-.17,1.56-14.66,38.34s-2.36,11.63-4.41,18.23a119.49,119.49,0,0,0-3.06,13.65l13-80.46Z" transform="translate(-5919.95 5130.983)" opacity="0.1" style="isolation: isolate"></path> <path id="Path_1479" data-name="Path 1479" d="M970.33,440.99l-6.09.1h-.19l-3.57-15.85c1.75-.08,3.52-.17,5.29-.28Z" transform="translate(-5919.95 5130.983)" fill="#3f3d56"></path> <path id="Path_1480" data-name="Path 1480" d="M1044.5,421.76l-3.91,3.23-13.03,10.77s-35.37,18.87-45.11.94c-8.59-15.79,31.51-27.06,41.17-29.52,1.31-.33,2.06-.5,2.06-.5Z" transform="translate(-5919.95 5130.983)" fill="#a5636d"></path> <path id="Path_1481" data-name="Path 1481" d="M893.43,267.25s6.91,3.15,8.48,7.55S893.43,267.25,893.43,267.25Z" transform="translate(-5919.95 5130.983)" opacity="0.1" style="isolation: isolate"></path> <path id="Path_1482" data-name="Path 1482" d="M872.04,314.42s-10.06,12.26-6,17S872.04,314.42,872.04,314.42Z" transform="translate(-5919.95 5130.983)" opacity="0.1" style="isolation: isolate"></path> <path id="Path_1483" data-name="Path 1483" d="M1051.89,274.17s-9.43.94-9.75,9.12Z" transform="translate(-5919.95 5130.983)" opacity="0.1" style="isolation: isolate"></path> <path id="Path_1484" data-name="Path 1484" d="M964.48,403.08c1-.94,22.64-33,27.67-30.18Z" transform="translate(-5919.95 5130.983)" opacity="0.1" style="isolation: isolate"></path> <path id="Path_1485" data-name="Path 1485" d="M1005.05,194.62a37.294,37.294,0,0,1-4.43,17.66h-.28c-2.37-.5-3.6-3.26-5.41-5a7.371,7.371,0,0,0-8.49-1.19,8.61,8.61,0,0,0-4.17,8.07c-1.2-5-.82-10.39-2-15.43s-4.69-10.15-9.51-10.24c-2.08,0-4.5.77-6-.79-.91-.94-1.09-2.42-1.77-3.56-3.45-5.57-13.93-2.75-18.21.11s-9.25,7.42-14.57,9.87a37.42,37.42,0,0,1,74.83.54Z" transform="translate(-5919.95 5130.983)" opacity="0.1" style="isolation: isolate"></path> <path id="Path_1486" data-name="Path 1486" d="M963,183.16c.68,1.14.86,2.62,1.77,3.56,1.5,1.55,3.92.75,6,.79,4.82.08,8.34,5.19,9.51,10.23s.79,10.4,2,15.43a8.609,8.609,0,0,1,4.17-8.06,7.35,7.35,0,0,1,8.48,1.19c1.81,1.72,3,4.48,5.42,5s4.66-1.78,5.52-4.28.79-5.24,1.35-7.83c1.07-4.91,4.27-8.93,6-13.59a24.6,24.6,0,0,0-.16-17.56c-1.18-3-2.93-5.61-4.13-8.56-1.8-4.48-2.28-9.53-4.48-13.8-3.7-7.15-12.42-10.72-19.58-8-3.42,1.29-6.39,3.78-9.86,4.89-4.64,1.49-9.61.37-14.42-.3s-10.13-.73-14,2.43c-4.45,3.64-5.67,10.48-9.85,14.48-1.76,1.68-3.94,2.75-5.79,4.3s-3.45,3.86-3.24,6.38c.28,3.26,3.47,6.22,2.29,9.23a7.285,7.285,0,0,1-1.75,2.3,33.011,33.011,0,0,0-7.61,12.95c8.42,2.63,17.52-6.65,24.11-11C949.08,180.41,959.56,177.58,963,183.16Z" transform="translate(-5919.95 5130.983)" fill="#4c3e42"></path> <path id="Path_1487" data-name="Path 1487" d="M1044.5,421.76l-3.91,3.23c-3.45-5.75-17.62-17.23-17.62-17.23l.61-.59c1.31-.33,2.06-.5,2.06-.5Z" transform="translate(-5919.95 5130.983)" opacity="0.1" style="isolation: isolate"></path> <path id="Path_1488" data-name="Path 1488" d="M1048.28,415.97s-1.41,3.5-2.86,6.53-3,5.77-3.12,3.54c-.16-4.41-18.39-19.19-18.39-19.19l2.47-2.4,2.87-2.79Z" transform="translate(-5919.95 5130.983)" fill="#e7effd"></path> <path id="Path_1489" data-name="Path 1489" d="M1048.91,392.7l2.06,35.08c-4.88-7.59-18.29-27.06-26.91-26.43l20.91-24a26.835,26.835,0,0,0,2.4-3.08C1048.16,384.25,1048.91,392.7,1048.91,392.7Z" transform="translate(-5919.95 5130.983)" opacity="0.1" style="isolation: isolate"></path> <path id="Path_1490" data-name="Path 1490" d="M1048.28,415.97s-1.41,3.5-2.86,6.53c-5.48-7.52-13-16.39-19-18.05l2.87-2.79Z" transform="translate(-5919.95 5130.983)" opacity="0.1" style="isolation: isolate"></path> <path id="Path_1491" data-name="Path 1491" d="M1064,288.76l5.66,4.4s9.43.16,10.37,8,9.59,11.48,9.59,11.48,6.45,6.44,6.45,9.43,4.87,8.33,4.87,8.8,4.72,10.06,4.09,11.79,5,9.28,3.3,12.11a69.477,69.477,0,0,0-3.77,7.86s-7.39,14.15-11.17,16.82-21.06,25.15-21.06,25.15-18.55,21.38-18.55,28c0,0-18.08-30.19-28.77-29.4l20.91-24.05s3.61-3.93,3.77-6.29,10.06-13.21,14.78-13.68c0,0,.78-6.45-1.26-6.6s-3.77-5.19-3.77-5.19-13.84-16.35-14-26.73S1064,288.76,1064,288.76Z" transform="translate(-5919.95 5130.983)" fill="#4c617b"></path> <path id="Path_1492" data-name="Path 1492" d="M1072.33,303.76s-13.21,9.74-10.38,12.89S1072.33,303.76,1072.33,303.76Z" transform="translate(-5919.95 5130.983)" opacity="0.1" style="isolation: isolate"></path> <path id="Path_1493" data-name="Path 1493" d="M1072.96,343.97s24.52-7.86,27,0Z" transform="translate(-5919.95 5130.983)" opacity="0.1" style="isolation: isolate"></path> <path id="Path_1494" data-name="Path 1494" d="M899.95,301.84s0,35.84-3.07,39.38S899.95,301.84,899.95,301.84Z" transform="translate(-5919.95 5130.983)" opacity="0.1" style="isolation: isolate"></path> <path id="Path_1495" data-name="Path 1495" d="M1041.67,313.39l4.56,12.81S1048.04,313.63,1041.67,313.39Z" transform="translate(-5919.95 5130.983)" opacity="0.1" style="isolation: isolate"></path> <g id="Group_898" data-name="Group 898" transform="translate(-5919.95 5130.983)" opacity="0.1"> <path id="Path_1496" data-name="Path 1496" d="M930.56,175.98c1.15-2.95-1.86-5.84-2.26-9a6,6,0,0,0-.5,2.84c.2,2.39,2,4.61,2.43,6.82A3.947,3.947,0,0,0,930.56,175.98Z"></path> <path id="Path_1497" data-name="Path 1497" d="M982.69,209.84c-1.13-5-.8-10.21-1.94-15.16s-4.69-10.16-9.51-10.24c-2.08,0-4.5.76-6-.79-.91-.94-1.09-2.42-1.77-3.56-3.44-5.57-13.92-2.75-18.21.11-6.43,4.27-15.26,13.21-23.51,11.19-.39.95-.76,1.91-1.07,2.9,8.42,2.63,17.52-6.65,24.11-11,4.29-2.85,14.76-5.68,18.21-.1.68,1.14.86,2.62,1.77,3.56,1.5,1.55,3.92.75,6,.79,4.82.08,8.34,5.19,9.51,10.23s.79,10.4,2,15.43A8.545,8.545,0,0,1,982.69,209.84Z"></path> <path id="Path_1498" data-name="Path 1498" d="M1006.33,203.94c-.86,2.5-3.1,4.79-5.52,4.28s-3.6-3.26-5.41-5a7.38,7.38,0,0,0-8.49-1.18,8.549,8.549,0,0,0-4.17,7.61,8.211,8.211,0,0,1,3.7-4.55,7.35,7.35,0,0,1,8.48,1.19c1.81,1.72,3,4.48,5.42,5s4.66-1.78,5.52-4.28a21.984,21.984,0,0,0,.86-4.52A13.95,13.95,0,0,1,1006.33,203.94Z"></path> <path id="Path_1499" data-name="Path 1499" d="M1013.72,182.53c-1.77,4.66-5,8.68-6,13.58-.22,1-.34,2-.46,3,1.07-4.88,4.26-8.89,6-13.54a23.685,23.685,0,0,0,1.45-6.52A22.737,22.737,0,0,1,1013.72,182.53Z"></path> </g> <circle id="Ellipse_346" data-name="Ellipse 346" cx="0.39" cy="0.39" r="0.39" transform="translate(-5133.81 5426.563)" fill="#e6e8ec"></circle> <path id="Path_1500" data-name="Path 1500" d="M472.26,515.39s11-7.89,22.43-3c0,0-3.2,6.78-17.4,6.69Z" transform="translate(-5919.95 5130.983)" fill="#44e2aa"></path> <path id="Path_1501" data-name="Path 1501" d="M470.89,515.85s-2.94,13.23,6,21.81c0,0,5-5.6-.67-18.63Z" transform="translate(-5919.95 5130.983)" fill="#44e2aa"></path> <path id="Path_1502" data-name="Path 1502" d="M456.31,503.81s.41-11.17,25.7-8.44c0,0,.4,7.19-8.3,10.93S460.86,507.33,456.31,503.81Z" transform="translate(-5919.95 5130.983)" fill="#44e2aa"></path> <path id="Path_1503" data-name="Path 1503" d="M454.76,503.76s-10.5,3.82-.12,27.05c0,0,7-1.84,7.84-11.27S459.5,507.04,454.76,503.76Z" transform="translate(-5919.95 5130.983)" fill="#44e2aa"></path> <path id="Path_1504" data-name="Path 1504" d="M439.92,488.54s-2.14-18.27,23.64-17.38c0,0,2.46,16.52-18.93,21.61Z" transform="translate(-5919.95 5130.983)" fill="#44e2aa"></path> <path id="Path_1505" data-name="Path 1505" d="M422.14,468.5s2.73-20.91,28.66-15.7c0,0,.78,18-24.28,20.49Z" transform="translate(-5919.95 5130.983)" fill="#44e2aa"></path> <path id="Path_1518" data-name="Path 1518" d="M439.21,488.43s-18.32-1.68-16.79,24.06c0,0,16.58,2,21.14-19.46Z" transform="translate(-5919.95 5130.983)" fill="#44e2aa"></path> <path id="Path_1519" data-name="Path 1519" d="M421.25,467.84s-21.07.74-18.34,27c0,0,17.8,2.48,22.69-22.22Z" transform="translate(-5919.95 5130.983)" fill="#44e2aa"></path> <path id="Path_1520" data-name="Path 1520" d="M408.77,449.3s-19.47-8.24-30.82,15.37c0,0,17.95,6.8,32.65-11.7Z" transform="translate(-5919.95 5130.983)" fill="#44e2aa"></path> <path id="Path_1521" data-name="Path 1521" d="M395.9,427.35s-19.95-8.79-30.58,14.26c0,0,20.67,6.24,32.33-10.74Z" transform="translate(-5919.95 5130.983)" fill="#44e2aa"></path> <path id="Path_1522" data-name="Path 1522" d="M388.22,408.14s-19.53-17.28-33.87,1.5c0,0,19.82,14.07,34.89,2.47Z" transform="translate(-5919.95 5130.983)" fill="#44e2aa"></path> <path id="Path_1523" data-name="Path 1523" d="M380.96,383.23s-19.67-17.69-33.85,2.14c0,0,21.86,14.29,34.67,1.69Z" transform="translate(-5919.95 5130.983)" fill="#44e2aa"></path> <path id="Path_1572" data-name="Path 1572" d="M307.36,437.33a37.982,37.982,0,0,1-7.29,2.18,73.224,73.224,0,0,1-13.23,1.25c.13,1.17.23,2.26.33,3.25.24,2.72.38,4.59.38,4.59l-4.69-.32-38.68-2.64-22.62-3.35a42.359,42.359,0,0,0,3.55,4.17,18.7,18.7,0,0,0,4.52,3.51s20.41,16.53,23.94,16.68c.5,0,.66.5.58,1.29,8.59,0,35.3,1.25,27.89,16.12a11.852,11.852,0,0,1-6.07,5.91c-8.57,3.63-21.5-2.9-28.16-6.91-.65,1.27-1.27,2.45-1.82,3.46-1.13,2.13-1.92,3.54-1.92,3.54l-.67-.48-34.32-24.44-7.52-6.38a26.271,26.271,0,0,1-6.51-1.13h0l-1-.32a1.984,1.984,0,0,0-.11.27,13.981,13.981,0,0,0-.61,2.4v.36a28.136,28.136,0,0,0-.28,2.81c0,.64-.05,1.32-.05,2-.06,13.62,5.4,35.51,5.4,35.51s14.15,36.09,9.13,44.42h0a3.748,3.748,0,0,1-1,1.08c-1.77,1.28-2.83,3.56-3.38,6.27-1.87,8.84,1.41,22.33,1.41,22.33s-.3.5-.81,1.28a38.68,38.68,0,0,1-3.72,5c-.21.24-.43.49-.66.72a17.322,17.322,0,0,1-2,1.8c.13.39.27.79.41,1.22s.32,1.1.46,1.7a24.376,24.376,0,0,1-1.25,14.71,40.528,40.528,0,0,0-2.52,10.57h0a80.873,80.873,0,0,0,.51,19.9c-.15-.08-.28-.16-.43-.23q-16.59-8.67-32.71-18.11c-3.15-1.82-6.28-3.68-9.39-5.55q-5.74-3.461-11.43-7-7.5-4.68-15-9.59l-2.34-1.56-.9-.61c-1.27-.85-2.52-1.7-3.78-2.56a192.024,192.024,0,0,1-14.14-21c-.71-1.27-1.35-2.48-1.88-3.59v-.06l-.34-.73-1.41-.5h0c-2.65-.93-4.33-1.58-4.33-1.58h0a49.057,49.057,0,0,0,1.74-13.7c-.08-9-2.57-21-12.83-30.62-15.16-14.33-17.25-28.48-17.47-33.91v-1a12.537,12.537,0,0,1,.06-1.37l1.16-1.11c-2.94-.59-5.7-.86-5.7-.86s10.06-36.4,27-48.55c8.4-6,15.39-16,20.33-24.58a372.6,372.6,0,0,1,30.28-44.39l3.05-3.85.89-1.13.19-.23.24-.32q-.619-.94-1.26-1.86l-.28-.41c-1.33-2-2.47-4-2.29-6.39v-.58a7.641,7.641,0,0,1,.22-1.18,1.085,1.085,0,0,0,.12.18c1.43-4.16,6.94-6,11-8.3,9.57-5.38,13.65-17.15,15.7-28.1,1.59-8.52,2.91-18.07,9.51-23.54,4.26-3.52,10-4.68,14.31-8.17a26.825,26.825,0,0,0,6.08-7.81c1-1.7,1.86-3.46,2.79-5.16,4.26-7.7,9.86-14.86,17.27-19.47s16.81-6.4,24.93-3.3c3.13,1.19,6,3,9,4.33a35.083,35.083,0,0,0,5.72,1.78c6.11,1.43,12.54,1.8,18.28,4.35,9.33,4.14,15.4,13.3,20.94,22,2.87,4.5,7.38,11.08,9.94,17.7v-.69a25.39,25.39,0,0,1,2,9.2,14.008,14.008,0,0,1-.43,4c-.92,3.4-3.27,5.55-6.22,7.13l-.47.23a19.937,19.937,0,0,1-1.94.87c-.1.55-.21,1.11-.33,1.65-.05.23-.11.47-.17.7-.13.56-.28,1.11-.44,1.66a38.486,38.486,0,0,1-12,18.34,40.32,40.32,0,0,1-13.42,7.6c-.35.12-.72.21-1.07.32a8.593,8.593,0,0,1-1.26,2.33,6.756,6.756,0,0,1-1.36,1.31,8.229,8.229,0,0,1-1,.58,1.343,1.343,0,0,1-.27.13c-3.6,1.62-8.53.35-12-2.07-.18-.12-.35-.26-.52-.39a11.483,11.483,0,0,1-.19,1.79c-.1.62-.17,1-.28,1.52s-.15.77-.22,1.14-.12.62-.18.91l-.12.51a78.56,78.56,0,0,1-11.14,27.1,38.6,38.6,0,0,1-2.53,3.41l-2.48,3.78v.51c.47,8.7-2.39,16.81-6.43,23.79a69.456,69.456,0,0,1-4.45,6.69l.56.33c5.6,3.19,16.64,8.86,23.62,8.38,0,0,26.4,3.41,29.46,1.7.42-.24.83.09,1.21.8,4.27-2.6,14.09-8.11,21.84-8.84,5.42-.52,9.83,1.29,10.65,8S313.02,434.9,307.36,437.33Z" transform="translate(-5919.95 5130.983)" fill="url(#linear-gradient-2)"></path> <path id="Path_1573" data-name="Path 1573" d="M162.85,574.84a21.92,21.92,0,0,1,1.44,19.23c-2.43,6.09-2.7,13.68-2.45,19.25-3.15-1.82-6.28-3.68-9.39-5.55q-5.74-3.461-11.43-7-7.5-4.68-15-9.59l-2.34-1.56-.9-.61a1.875,1.875,0,0,0-.29-.4c-1.34-1.42-9.15-12.62-13.79-21.12-.84-1.56-1.57-3-2.15-4.32v-.07c-1-2.22-1.47-4-1.17-4.81a9.862,9.862,0,0,1,4.85-6c5.76-3,15-.23,24.14,4.18a167,167,0,0,1,22.54,13.73l.81.59.08.06c3,2.13,4.74,3.54,4.74,3.54A4.773,4.773,0,0,1,162.85,574.84Z" transform="translate(-5919.95 5130.983)" fill="#fbbebe"></path> <path id="Path_1574" data-name="Path 1574" d="M161.33,573.51a21.92,21.92,0,0,1,1.44,19.25c-2.43,6.09-2.7,13.68-2.45,19.26q-4.721-2.75-9.39-5.56-5.749-3.461-11.43-7c-5-3.13-10-6.33-14.95-9.6l-2.34-1.56-.9-.61a2.149,2.149,0,0,0-.29-.4c-1.34-1.41-9.15-12.61-13.79-21.12-.84-1.56-1.57-3-2.15-4.32v-.06c-1-2.23-1.47-4-1.17-4.82a9.892,9.892,0,0,1,4.85-6c5.76-3,15-.23,24.14,4.18a166.988,166.988,0,0,1,22.54,13.73l.81.59.08.06c3,2.13,4.74,3.54,4.74,3.54S161.15,573.22,161.33,573.51Z" transform="translate(-5919.95 5130.983)" opacity="0.05" style="isolation: isolate"></path> <path id="Path_1575" data-name="Path 1575" d="M198.15,597.76a24.462,24.462,0,0,1-1.41,5,39.565,39.565,0,0,0-2.27,9h0a79.477,79.477,0,0,0,.08,19.67q-16.59-8.67-32.71-18.11c-3.15-1.82-6.28-3.68-9.39-5.55-.7-5.32-1.7-10-2.83-11.15-1.48-1.56-9.93-13.64-15.18-23.17-.68-1.2-1.27-2.36-1.82-3.46v-.05c-.21-.44-.41-.86-.6-1.28-1.35-2.9-2.07-5.16-1.71-6.25a11.544,11.544,0,0,1,4.12-5.94c8.87-6.48,27.31,2.29,41.47,11l.35.21c2.68,1.67,5.22,3.32,7.5,4.86l1.33.9c5.86,4,9.75,7.11,9.75,7.11a21.343,21.343,0,0,1,2.31,4.78,25.37,25.37,0,0,1,.83,2.9A24.173,24.173,0,0,1,198.15,597.76Z" transform="translate(-5919.95 5130.983)" fill="#fbbebe"></path> <path id="Path_1576" data-name="Path 1576" d="M108.75,567.49c7.27,2.54,18,5.91,23.84,6a11.291,11.291,0,0,0,1.81-.09h0c4.11-.56,16.78.34,28.41,1.39,4.66.41,9.15.84,12.86,1.22l9.32,1v-3.6c-2.59-1.78-5.6-3.76-8.82-5.76-14.21-8.78-32.88-17.75-41.82-11.22-12.59-6.08-25.37-9-29,1.82C104.93,559.66,106.46,563.24,108.75,567.49Z" transform="translate(-5919.95 5130.983)" opacity="0.1" style="isolation: isolate"></path> <path id="Path_1577" data-name="Path 1577" d="M73.82,483.68c.2,5.39,2.22,19.38,16.69,33.51,18.46,18,10.59,43.88,10.59,43.88s22,8.64,31.49,8.87a11.291,11.291,0,0,0,1.81-.09c5.69-.79,28.31,1.3,41.31,2.61l9.32,1V496.94L83.09,472.18l-9.23,9.2A18.012,18.012,0,0,0,73.82,483.68Z" transform="translate(-5919.95 5130.983)" fill="#4c617b"></path> <path id="Path_1578" data-name="Path 1578" d="M110.02,558.67" transform="translate(-5919.95 5130.983)" fill="none"></path> <g id="Group_900" data-name="Group 900" transform="translate(-5919.95 5130.983)" opacity="0.1"> <path id="Path_1579" data-name="Path 1579" d="M183.36,572.51l1.67.17v.82l-9.32-1c-9.33-.94-23.59-2.28-33-2.67C149.22,569.25,170.77,571.24,183.36,572.51Z"></path> <path id="Path_1580" data-name="Path 1580" d="M73.86,481.43l9.23-9.2,6.16,1.49-7.69,7.71a18.013,18.013,0,0,0,0,2.3c.2,5.39,2.22,19.37,16.69,33.51,18.46,18,10.59,43.87,10.59,43.87s18.2,7.15,28.63,8.62a24.86,24.86,0,0,0-3,.17,11.291,11.291,0,0,1-1.81.09c-9.49-.24-31.49-8.88-31.49-8.88s7.87-25.87-10.59-43.87c-14.54-14.14-16.56-28.12-16.76-33.48A17.937,17.937,0,0,1,73.86,481.43Z"></path> </g> <path id="Path_1581" data-name="Path 1581" d="M277.56,429.64s30.83-21.38,33.08-2.14-33.08,16.54-33.08,16.54Z" transform="translate(-5919.95 5130.983)" fill="#fbbebe"></path> <path id="Path_1582" data-name="Path 1582" d="M224.4,415.46s16.67,11,25.9,10.35c0,0,25.2,3.38,28.13,1.69s4.73,24.42,4.73,24.42l-41.41-2.93-26.56-4.05s-13.28-8.1-13.28-15.08S224.4,415.46,224.4,415.46Z" transform="translate(-5919.95 5130.983)" fill="#f7cddd"></path> <path id="Path_1583" data-name="Path 1583" d="M224.4,415.46s16.67,11,25.9,10.35c0,0,25.2,3.38,28.13,1.69s4.73,24.42,4.73,24.42l-41.41-2.93-26.56-4.05s-13.28-8.1-13.28-15.08S224.4,415.46,224.4,415.46Z" transform="translate(-5919.95 5130.983)" fill="#ffb158"></path> <path id="Path_1584" data-name="Path 1584" d="M248.84,471.1s37.49-1.55,29.09,15.91-36.8-3.74-36.8-3.74Z" transform="translate(-5919.95 5130.983)" fill="#fbbebe"></path> <path id="Path_1585" data-name="Path 1585" d="M211.14,433.91s30.38-22.73,26.11-50.41-26.11,21.16-26.11,21.16Z" transform="translate(-5919.95 5130.983)" fill="#5c5c8e"></path> <path id="Path_1586" data-name="Path 1586" d="M219.56,308.42a38.439,38.439,0,0,0,24,35.59,34.458,34.458,0,0,0,4.94,1.64,39.07,39.07,0,0,0,5.45,1c1.32.13,2.65.2,4,.2a37.843,37.843,0,0,0,12.61-2.19,38.4,38.4,0,1,0-51-36.24Z" transform="translate(-5919.95 5130.983)" fill="#fbbebe"></path> <path id="Path_1587" data-name="Path 1587" d="M73.82,483.68c3.44.63,7.69,1.79,7.69,3.57,0,3,48,19.21,48,19.21s-1.8,4.19,3,11.4,43.83,48.61,43.83,48.61l-.13,1.22-.5,4.77-2.38,22.81s15-5.4,19.8-4.8c1.55.19,3.24-.8,4.79-2.24a23.008,23.008,0,0,0-3.13-7.67s-3.89-3.06-9.76-7.11V496.94L83.09,472.18l-9.23,9.2A18.012,18.012,0,0,0,73.82,483.68Z" transform="translate(-5919.95 5130.983)" opacity="0.1" style="isolation: isolate"></path> <path id="Path_1588" data-name="Path 1588" d="M69.5,479.45s12,1.19,12,4.2,48,19.21,48,19.21-1.8,4.19,3,11.4,43.83,48.61,43.83,48.61l-3,28.8s15-5.4,19.8-4.8c2.15.27,4.52-1.72,6.48-4a41.839,41.839,0,0,0,4.33-6.17s-5.41-22.82,1.8-28.22-7.8-45-7.8-45-6.79-28.16-4.79-40.24a14.636,14.636,0,0,1,.58-2.37.718.718,0,0,1,.09-.27c4.28-11.54,50.32-108.35,50.32-108.35a68.941,68.941,0,0,0-.58-8.21c-.09-.76-.21-1.55-.36-2.34a40.2,40.2,0,0,0-.93-4.27c-.26-.92-.54-1.8-.87-2.64-1.42-3.66-3.6-6.47-6.86-6.54,0,0-3.6-4-12-5.06-6.2-.81-15,0-27,5.06-28.2,12-34.8,12.6-34.8,12.6l-14.18,18.57-2.92,3.82a367.28,367.28,0,0,0-28.91,43.89c-4.72,8.48-11.4,18.37-19.41,24.31C79.11,443.45,69.5,479.45,69.5,479.45Z" transform="translate(-5919.95 5130.983)" fill="#ffb158"></path> <path id="Path_1589" data-name="Path 1589" d="M174.68,410.06s-40.06,9.9-55.59,34.88Z" transform="translate(-5919.95 5130.983)" opacity="0.1" style="isolation: isolate"></path> <path id="Path_1590" data-name="Path 1590" d="M162.3,453.94s-7.57,50.86-5.47,54.69S162.3,453.94,162.3,453.94Z" transform="translate(-5919.95 5130.983)" opacity="0.1" style="isolation: isolate"></path> <path id="Path_1591" data-name="Path 1591" d="M165.01,480.05c2.92,3.82,14.75,33.31,14.75,33.31l-3.42,49.51-3,28.8s15-5.4,19.81-4.8c2.14.27,4.52-1.71,6.48-4-3.12-16.87-9.78-52.16-11-52.84-1.59-.9-9.69-29.26-10.12-37.14s-11.71-25.64-11.71-25.64S162.08,476.23,165.01,480.05Z" transform="translate(-5919.95 5130.983)" opacity="0.1" style="isolation: isolate"></path> <path id="Path_1592" data-name="Path 1592" d="M176.34,431.44c.73,2.25,1.89,15.3,1.89,15.3.82,11.51,9.52,15.27,14.92,16.47a14.61,14.61,0,0,1,.58-2.37c3.6-10.19,50.41-108.62,50.41-108.62a64.6,64.6,0,0,0-1.87-14.82c-10.19-3-26.33,1.62-26.33,1.62-4.66-.61-19.87,29.64-19.87,29.64s-10.14,23.17-11.25,26.32,0,8.34-.45,10.14-5.19,3.36-5.86,5.85-.23,7.41-.68,8.31S175.56,429.19,176.34,431.44Z" transform="translate(-5919.95 5130.983)" opacity="0.1" style="isolation: isolate"></path> <path id="Path_1593" data-name="Path 1593" d="M179.94,429.64c.74,2.25,1.89,15.3,1.89,15.3.68,9.58,6.84,13.79,12,15.63a25.274,25.274,0,0,0,7.2,1.44l7.24,6.28,33.41,24.65s12.46-23,9.08-23.15-22.87-16.5-22.87-16.5c-6-3.18-11.94-13.82-14.71-19.28a15.576,15.576,0,0,0,.36-2c1.21-10.19,26.41-49.2,26.41-49.2s9.74-11.47,13.54-32.72c.11-.48.18-1,.27-1.49a16.168,16.168,0,0,0,.2-2c.45-8.17-5.49-11.14-12.55-11.85h0a50.845,50.845,0,0,0-11,.34,79.166,79.166,0,0,0-10.8,2.12c-3-.39-10.46,12.16-15.34,21.05h0c-2.63,4.82-4.52,8.59-4.52,8.59s-10.19,23.18-11.33,26.33,0,8.33-.45,10.14-5.19,3.36-5.85,5.85-.24,7.41-.69,8.31S179.18,427.39,179.94,429.64Z" transform="translate(-5919.95 5130.983)" fill="#ffb158"></path> <path id="Path_1594" data-name="Path 1594" d="M141.17,377.76c6.34,6.52,16.68,6.54,24.94,3.23s15.27-9.35,22.94-14c5-3,10.24-5.53,15.14-8.66h0c.72-.47,1.42-.94,2.1-1.42,5.66-4,10.55-9.13,16.4-12.8a25.52,25.52,0,0,1,13.18-4.22,14.933,14.933,0,0,1,6.29,1.32,8.169,8.169,0,0,1,1,.52,27.3,27.3,0,0,1,5.3,4c1.65,1.49,3.24,3.08,5,4.46.11-.48.18-1,.27-1.49a16.165,16.165,0,0,0,.2-2c1.32.13,2.65.2,4,.2a37.852,37.852,0,0,0,12.63-2.24,2.809,2.809,0,0,1,.09-.49c1.44-7.56,4-15.57,10.12-19.82,3.53-2.47,9.17-3.47,14.05-5.35a38.4,38.4,0,1,0-72.36,4.16c-6.2-.81-15,0-27,5.06-28.2,12-34.8,12.6-34.8,12.6l-14.1,18.6c1.53,2.34,3.26,4.65,3.42,7.38C150.3,371.86,145.42,375.35,141.17,377.76Z" transform="translate(-5919.95 5130.983)" opacity="0.1" style="isolation: isolate"></path> <path id="Path_1595" data-name="Path 1595" d="M280.82,320.76c-6.09,4.26-8.68,12.26-10.12,19.81-.45,2.36-.88,4.85-2.32,6.72-3.23,4.19-9.73,3-13.95,0s-7.54-7.56-12.25-9.69c-6.26-2.82-13.61-.76-19.46,2.91s-10.75,8.8-16.41,12.79c-5.47,3.86-11.57,6.61-17.27,10.08-7.66,4.67-14.66,10.7-22.93,14s-18.6,3.3-24.93-3.22c4.25-2.36,9.13-5.85,8.8-10.9s-6.22-8.84-5.82-14,6.49-7.22,10.86-9.76c9.15-5.32,13-17,15-27.8,1.52-8.43,2.77-17.86,9.08-23.27,4.06-3.49,9.57-4.63,13.66-8.08,3.88-3.28,6-8.25,8.48-12.82,4.07-7.63,9.41-14.71,16.48-19.27s16.06-6.32,23.82-3.25c3,1.17,5.68,3,8.62,4.27,7.3,3.16,15.67,2.74,22.91,6.06,8.91,4.1,14.7,13.16,20,21.76,4.53,7.35,13.39,20.36,10.91,29.86C301.45,316.65,287.43,316.13,280.82,320.76Z" transform="translate(-5919.95 5130.983)" fill="#7c5c5c"></path> <g id="Group_901" data-name="Group 901" transform="translate(-5919.95 5130.983)" opacity="0.1"> <path id="Path_1596" data-name="Path 1596" d="M144.16,348.63a6.189,6.189,0,0,1,.21-1.17c1.61,2.54,3.62,5,3.81,8a6.9,6.9,0,0,1-.17,2.05C146.22,354.63,143.91,351.94,144.16,348.63Z"></path> <path id="Path_1597" data-name="Path 1597" d="M164.31,369.57c8.27-3.32,15.27-9.35,22.93-14,5.7-3.47,11.8-6.22,17.27-10.08,5.66-4,10.56-9.13,16.41-12.79s13.2-5.73,19.46-2.91c4.71,2.13,8,6.64,12.25,9.69s10.72,4.24,13.95.05c1.45-1.87,1.87-4.35,2.32-6.71,1.44-7.56,4-15.56,10.12-19.82,6.62-4.62,20.63-4.1,23.17-13.85a15,15,0,0,0,.33-5.29c1.63,4.33,2.46,8.69,1.48,12.49-2.55,9.75-16.56,9.23-23.18,13.85-6.08,4.26-8.68,12.26-10.12,19.82-.45,2.36-.87,4.85-2.31,6.71-3.24,4.19-9.74,3-14-.05s-7.54-7.56-12.25-9.69c-6.26-2.82-13.61-.75-19.46,2.91s-10.75,8.8-16.41,12.79c-5.47,3.87-11.57,6.61-17.27,10.08-7.66,4.68-14.66,10.7-22.93,14s-18.6,3.29-24.93-3.23a31.1,31.1,0,0,0,4.64-3.08C151.56,372.57,158.46,371.91,164.31,369.57Z"></path> </g> <path id="Path_1598" data-name="Path 1598" d="M815.56,271.4l-41-41.23a21.771,21.771,0,0,0-30.786-.343l-.134.133L486.18,485.24,377.32,375.53a21.71,21.71,0,0,0-30.7-.22l-41.44,41a22,22,0,0,0-.21,30.92L470.29,613.85a22,22,0,0,0,30.92.22L815.33,302.31a21.77,21.77,0,0,0,.353-30.785Z" transform="translate(-5919.95 5130.983)" fill="#44e2aa"></path> <g id="Group_902" data-name="Group 902" transform="translate(-5919.95 5130.983)" opacity="0.5"> <path id="Path_1599" data-name="Path 1599" d="M753.78,602.01s-30.58-1.84-27,19.59a5.23,5.23,0,0,0,2.72,5.5s0-1.59,3.13-1.05a13.808,13.808,0,0,0,3.33.16,6.869,6.869,0,0,0,4.06-1.67h0s8.59-3.55,11.94-17.61c0,0,2.47-3.06,2.37-3.85l-5.16,2.21s1.77,3.72.38,6.81c0,0-.17-6.68-1.16-6.52-.2,0-2.68,1.29-2.68,1.29s3,6.48.74,11.2c0,0,.87-8-1.69-10.73l-3.63,2.12s3.54,6.7,1.14,12.16c0,0,.62-8.38-1.91-11.64l-3.29,2.56s3.33,6.6,1.3,11.14c0,0-.26-9.76-2-10.5,0,0-2.88,2.54-3.32,3.59,0,0,2.28,4.79.87,7.32,0,0-.87-6.51-1.58-6.53,0,0-2.87,4.3-3.17,7.25a15.616,15.616,0,0,1,2.47-7.67,8.659,8.659,0,0,0-4.39,2.28s.44-3,5.1-3.32c0,0,2.37-3.26,3-3.46,0,0-4.63-.39-7.44.86,0,0,2.47-2.88,8.28-1.57l3.25-2.65s-6.09-.84-8.68.08c0,0,3-2.54,9.56-.69l3.54-2.11s-5.2-1.12-8.3-.72c0,0,3.27-1.76,9.34.15l2.53-1.14s-3.81-.75-4.93-.86-1.17-.43-1.17-.43a13.229,13.229,0,0,1,7.15.8S753.87,602.35,753.78,602.01Z" fill="#44e2aa"></path> </g> <g id="Group_903" data-name="Group 903" transform="translate(-5919.95 5130.983)" opacity="0.5"> <path id="Path_1600" data-name="Path 1600" d="M698.91,452.35s-15.53,26.41,5.21,32.93a5.239,5.239,0,0,0,6.14.08s-1.39-.77.48-3.27a14.3,14.3,0,0,0,1.66-2.89,7,7,0,0,0,.35-4.38h0s.73-9.27-10.27-18.63c0,0-1.61-3.6-2.35-3.87l-.38,5.6s4.11.12,6.24,2.76c0,0-6-2.88-6.34-1.93-.06.2-.07,3-.07,3s7.16.24,10.32,4.42c0,0-6.72-4.4-10.33-3.36l.24,4.2s7.58-.12,11.36,4.5c0,0-7.19-4.36-11.24-3.59l.79,4.1s7.4,0,10.51,3.89c0,0-8.81-4.19-10.26-3,0,0,1,3.72,1.68,4.59,0,0,5.31.14,6.92,2.55,0,0-6.19-2.18-6.54-1.56,0,0,2.54,4.51,5,6.12a15.649,15.649,0,0,1-5.71-5.69,8.619,8.619,0,0,0,0,5s-2.51-1.78-.63-6c0,0-1.84-3.59-1.73-4.25,0,0-2.44,3.95-2.61,7,0,0-1.44-3.51,2.36-8.1l-.88-4.1s-3.51,5.06-3.87,7.78c0,0-.91-3.81,3.73-8.83l-.28-4.11s-3.36,4.12-4.4,7.06c0,0-.09-3.71,4.36-8.25l.14-2.77s-2.4,3.06-3,4-.91.85-.91.85a13.149,13.149,0,0,1,3.95-6S699.25,452.42,698.91,452.35Z" fill="#44e2aa"></path> </g> <g id="Group_904" data-name="Group 904" transform="translate(-5919.95 5130.983)" opacity="0.5"> <path id="Path_1601" data-name="Path 1601" d="M601.78,241.64s-15.52,26.42,5.21,32.93a5.22,5.22,0,0,0,6.14.08s-1.39-.77.49-3.27a14.261,14.261,0,0,0,1.65-2.89,6.925,6.925,0,0,0,.35-4.38h0s.74-9.27-10.27-18.63c0,0-1.61-3.59-2.35-3.86l-.38,5.59s4.12.12,6.24,2.76c0,0-6-2.88-6.33-1.93-.07.2-.07,3-.07,3s7.15.24,10.31,4.42c0,0-6.72-4.4-10.33-3.36l.25,4.2s7.57-.12,11.35,4.5c0,0-7.19-4.35-11.24-3.59l.79,4.1s7.4,0,10.52,3.9c0,0-8.82-4.2-10.27-3,0,0,1,3.71,1.69,4.58,0,0,5.3.14,6.91,2.55,0,0-6.19-2.18-6.53-1.56,0,0,2.53,4.52,5,6.12a15.657,15.657,0,0,1-5.72-5.68,8.671,8.671,0,0,0,0,4.94s-2.51-1.78-.63-6.05c0,0-1.84-3.59-1.73-4.25,0,0-2.44,3.95-2.61,7,0,0-1.44-3.51,2.37-8.1l-.89-4.1s-3.51,5.06-3.86,7.78c0,0-.92-3.81,3.72-8.83l-.28-4.11s-3.36,4.12-4.4,7.06c0,0-.09-3.71,4.36-8.24l.14-2.78s-2.4,3.06-3,4-.91.85-.91.85a13.215,13.215,0,0,1,4-6S602.12,241.76,601.78,241.64Z" fill="#44e2aa"></path> </g> <g id="Group_905" data-name="Group 905" transform="translate(-5919.95 5130.983)" opacity="0.5"> <path id="Path_1602" data-name="Path 1602" d="M267.42,41.55s-57.8,42-19.54,75.27c0,0,4.33,7.88,13.06,5.89,0,0-2.26-2.94,4.09-6.54a32.554,32.554,0,0,0,6.22-4.64,16.1,16.1,0,0,0,4.83-9h0s10.22-19.14-4.59-49.4c0,0-.09-9.19-1.44-10.46l-6,11.62s8.69,4.09,10.78,11.72c0,0-10.21-11.79-11.76-10-.31.35-2.92,6.3-2.92,6.3s15.09,7.18,17.95,19.06c0,0-10.28-15.68-19-16.82l-3.39,9.21s16.31,6.81,20.09,20.21c0,0-11.32-16-20.7-18.15l-2.12,9.51s15.78,6.95,18.85,18.12c0,0-15-17.18-19.19-15.91,0,0-1.42,8.84-.67,11.37,0,0,11.22,5.25,12.42,11.9,0,0-11.21-10.42-12.53-9.42,0,0,1.22,12,5.06,17.77,0,0-6.29-8.09-6.93-17.48,0,0-4.29,5-4.53,10.61,0,0-3.72-6.15,4.27-13.53,0,0-.57-9.4.28-10.7,0,0-8.92,6.17-12.13,12.57,0,0,.19-8.84,12.6-15.11l1.92-9.59s-12.21,7.53-15.5,13c0,0,1.59-9,16.18-15.42l3.24-9.05s-11,5.69-16,11c0,0,3.27-8,17-13.57l2.87-5.8s-8,4.3-10.15,5.74-2.75,1-2.75,1a30.762,30.762,0,0,1,14.06-9.17S268.09,42.02,267.42,41.55Z" fill="#44e2aa"></path> </g> <g id="Group_906" data-name="Group 906" transform="translate(-5919.95 5130.983)" opacity="0.5"> <path id="Path_1603" data-name="Path 1603" d="M211.27,180.14S136.5,148.7,126.7,205.39c0,0-5.11,8.84,2,16.14,0,0,1.53-3.92,8.76.13a37.171,37.171,0,0,0,8.16,3.32,18.359,18.359,0,0,0,11.62-.62h0s24.58-1.33,45.27-33.5c0,0,8.86-5.48,9.31-7.54l-14.83,1s1.14,10.85-5,17.36c0,0,5.45-16.84,2.83-17.31-.53-.1-7.83.86-7.83.86s1.89,18.87-8,28.63c0,0,9.18-19.19,5.18-28.29l-10.93,2.11s3,19.85-7.82,31.39c0,0,8.89-20.4,5.46-30.76l-10.48,3.52s2.53,19.41-6.52,29c0,0,7.9-24.61,4.18-28,0,0-9.42,3.82-11.44,6,0,0,1.5,14-4.26,19.05,0,0,3.54-17,1.79-17.7,0,0-10.95,8.24-14.29,15.35,0,0,4.17-10.86,12.91-17,0,0-7.34-1.25-13,1.83,0,0,3.79-7.21,15.65-3.79,0,0,8.79-6.09,10.55-6,0,0-11.22-5-19.33-4.38,0,0,8.69-5,22.07,3.35l10.43-3.78s-14.49-7.43-21.76-7.4c0,0,9.66-3.74,24.48,6.66l10.7-2.21s-12-7.35-20.1-9.05c0,0,9.71-1.54,23.18,8.55l7.32-.61s-8.86-5.22-11.54-6.49-2.56-2.09-2.56-2.09a34.889,34.889,0,0,1,17.17,8.26S211.2,181.07,211.27,180.14Z" fill="#44e2aa"></path> </g> <g id="Group_907" data-name="Group 907" transform="translate(-5919.95 5130.983)" opacity="0.5"> <path id="Path_1604" data-name="Path 1604" d="M166.5,100.76s-26.51-61.27-64.62-33.17c0,0-8.07,2.34-8,10.7,0,0,3.14-1.46,5.12,5.07a31.035,31.035,0,0,0,3,6.61,15.06,15.06,0,0,0,7.26,6.25h0s15.36,13.22,46,5.89c0,0,8.39,1.79,9.83.83l-9.37-7.87s-5.5,7.1-12.88,7.44c0,0,12.83-6.9,11.54-8.67-.26-.36-5.14-3.94-5.14-3.94s-9.63,12.28-21,12.47c0,0,16.39-6.18,19.19-13.85l-7.7-5s-9.67,13.53-22.66,14.24c0,0,16.9-7.05,20.77-15.17l-8.23-3.83s-9.56,13-20.37,13.49c0,0,18.71-10.12,18.42-14.25,0,0-7.77-3.1-10.23-2.92,0,0-7.07,9.15-13.38,8.89,0,0,11.79-8.09,11.14-9.5,0,0-11.2-1.34-17.23,1,0,0,8.66-4.08,17.35-2.74,0,0-3.65-4.93-8.75-6.3,0,0,6.37-2.13,11.46,6.65,0,0,8.69,1.4,9.7,2.44,0,0-3.8-9.39-9-13.62,0,0,8,2,11.21,14.57l8.35,3.71s-4.37-12.68-8.71-16.79c0,0,7.87,3.28,10.75,17.9l7.59,4.79s-2.94-11.2-6.77-16.83c0,0,6.64,4.62,8.9,18.29l4.7,3.8s-2.3-8.14-3.17-10.42-.32-2.7-.32-2.7a28.75,28.75,0,0,1,5.49,14.68S165.94,101.29,166.5,100.76Z" fill="#44e2aa"></path> </g> <g id="Group_908" data-name="Group 908" transform="translate(-5919.95 5130.983)" opacity="0.5"> <path id="Path_1605" data-name="Path 1605" d="M683.18,132.64s-6.25-30-26-20.89a5.219,5.219,0,0,0-4.6,4.07s1.55-.37,1.84,2.75a14.353,14.353,0,0,0,.71,3.25,7,7,0,0,0,2.69,3.48h0s5.68,7.36,20.11,6.9c0,0,3.61,1.58,4.35,1.28l-3.49-4.4s-3.13,2.68-6.47,2.15c0,0,6.4-1.91,6-2.83-.09-.19-1.95-2.25-1.95-2.25s-5.46,4.63-10.61,3.66c0,0,7.93-1.26,9.91-4.45l-3-2.95s-5.54,5.18-11.44,4.29c0,0,8.25-1.6,10.74-4.89l-3.34-2.5s-5.5,4.94-10.41,4.17c0,0,9.35-2.82,9.6-4.7,0,0-3.2-2.11-4.33-2.26,0,0-4,3.46-6.83,2.76,0,0,6-2.54,5.89-3.24,0,0-4.91-1.64-7.84-1.15a15.708,15.708,0,0,1,8.05.37,8.577,8.577,0,0,0-3.35-3.64s3.06-.37,4.54,4c0,0,3.77,1.43,4.13,2,0,0-.84-4.57-2.78-7,0,0,3.42,1.63,3.69,7.59l3.41,2.44s-.79-6.1-2.36-8.36c0,0,3.23,2.21,3.17,9l3,2.86s-.28-5.31-1.48-8.19c0,0,2.55,2.69,2.3,9l1.76,2.15s-.27-3.87-.45-5,.1-1.25.1-1.25a13.227,13.227,0,0,1,1.11,7.12S682.88,132.82,683.18,132.64Z" fill="#44e2aa"></path> </g> <g id="Group_909" data-name="Group 909" transform="translate(-5919.95 5130.983)" opacity="0.5"> <path id="Path_1606" data-name="Path 1606" d="M575.56,688.76s-6.24-30-26-20.89a5.232,5.232,0,0,0-4.61,4.07s1.55-.37,1.84,2.75a13.817,13.817,0,0,0,.72,3.25,7,7,0,0,0,2.68,3.48h0s5.68,7.36,20.12,6.9c0,0,3.61,1.58,4.34,1.28l-3.48-4.4s-3.13,2.68-6.48,2.15c0,0,6.4-1.91,6-2.83-.08-.19-1.95-2.25-1.95-2.25s-5.46,4.63-10.61,3.66c0,0,7.94-1.26,9.91-4.45l-3-3s-5.48,5.2-11.4,4.28c0,0,8.25-1.6,10.74-4.89l-3.34-2.5s-5.49,4.94-10.4,4.17c0,0,9.35-2.81,9.6-4.7,0,0-3.21-2.11-4.33-2.26,0,0-4,3.46-6.84,2.76,0,0,6-2.54,5.89-3.24,0,0-4.91-1.64-7.84-1.15a15.735,15.735,0,0,1,8.06.37,8.651,8.651,0,0,0-3.35-3.64s3.05-.37,4.53,4c0,0,3.78,1.43,4.14,2,0,0-.84-4.57-2.78-7,0,0,3.42,1.63,3.68,7.59l3.42,2.44s-.8-6.1-2.37-8.36c0,0,3.24,2.21,3.18,9l3,2.86s-.28-5.31-1.49-8.19c0,0,2.56,2.69,2.31,9l1.76,2.15s-.28-3.87-.46-5,.1-1.24.1-1.24a13.171,13.171,0,0,1,1.11,7.11S575.28,688.91,575.56,688.76Z" fill="#44e2aa"></path> </g> </g> </svg> 